<svg id="Layer_1" data-name="Layer 1" xmlns="http://www.w3.org/2000/svg" viewBox="0 0 274.09 106.15"><defs><style>.cls-1{fill:#e60004;}.cls-2{fill:#fff;}.cls-3{fill:#e6000d;}.cls-4{fill:#1b1c20;}</style></defs><title>Vector Smart Object</title><path class="cls-1" d="M101.36,17.09c-.09-2.93-.77-5.45-2.32-7A13,13,0,0,0,92.74,7l0,0a190.21,190.21,0,0,0-38-3.57h0a190.08,190.08,0,0,0-38,3.57L16.7,7a13,13,0,0,0-6.3,3.12c-1.55,1.57-2.23,4.09-2.31,7a203.36,203.36,0,0,0,2,32.87,199.57,199.57,0,0,0,5.35,25.69c1.31,4.32,3.8,7.25,8.22,7.95a197.42,197.42,0,0,0,31,2.43h0a197.36,197.36,0,0,0,31-2.43c4.43-.7,6.91-3.63,8.22-7.95A199.57,199.57,0,0,0,99.31,50,204.56,204.56,0,0,0,101.36,17.09Z" transform="translate(-8.01 -3.36)"/><path class="cls-2" d="M54.71,83.9A195.94,195.94,0,0,1,24,81.5C20.77,81,18.7,78.93,17.52,75a195.11,195.11,0,0,1-5.28-25.38,200.78,200.78,0,0,1-2-32.53c.07-2.58.66-4.51,1.71-5.57A11,11,0,0,1,17.21,9l.13,0a188.94,188.94,0,0,1,37-3.49h.72A188.78,188.78,0,0,1,92.16,9l.08,0a11,11,0,0,1,5.28,2.55c1,1.06,1.64,3,1.72,5.59a201.36,201.36,0,0,1-2,32.51,194.61,194.61,0,0,1-5.29,25.41c-1.17,3.86-3.24,5.92-6.5,6.43a196.2,196.2,0,0,1-30.69,2.4Z" transform="translate(-8.01 -3.36)"/><path class="cls-2" d="M66.62,34.6H57.53a.6.6,0,0,0-.54.58L55.85,54.54a.51.51,0,0,0,.47.57h2.15a.58.58,0,0,0,.53-.57l.4-6.87h6.46A1.78,1.78,0,0,0,67.74,46l.54-9.61A1.67,1.67,0,0,0,66.62,34.6Z" transform="translate(-8.01 -3.36)"/><path class="cls-3" d="M64,38.12H60.25a.28.28,0,0,0-.29.26L59.63,44a.25.25,0,0,0,.25.26h3.77a.84.84,0,0,0,.88-.8l.26-4.55a.78.78,0,0,0-.78-.81" transform="translate(-8.01 -3.36)"/><path class="cls-2" d="M53.32,34.6H42a.62.62,0,0,0-.61.56l-.13,2.36a.52.52,0,0,0,.53.55h3.44c.46.06.67.31.61.75l-.92,15.72a.49.49,0,0,0,.46.57h2.15a.58.58,0,0,0,.53-.57L49,38.77c0-.46.28-.69.84-.7h3.29a.61.61,0,0,0,.6-.55l.14-2.36A.53.53,0,0,0,53.32,34.6Z" transform="translate(-8.01 -3.36)"/><path class="cls-1" d="M76.23,38.57l.32-.14c1.5-.6,2.41-.75,3.35-.35.55.23.86-.28.37-.65a6.13,6.13,0,0,0-4.59-1.85c1.44-.29,1.85-.74,3.24-1.11a5.58,5.58,0,0,1,4.6.89c.49.3.9-.18.55-.6-2.76-3.41-7.34-4.29-11.26-3.23l.25-.23c1.21-1.09,2-1.55,3-1.5.6,0,.71-.55.13-.73a6.15,6.15,0,0,0-4.94-.16c1.25-.76,1.49-1.34,2.67-2.16A5.48,5.48,0,0,1,78.56,26c.58.11.8-.48.33-.76-3.75-2.25-8.35-1.49-11.69.86.06-.1.11-.21.17-.3.77-1.44,1.36-2.15,2.34-2.46.57-.18.47-.76-.13-.74a6.12,6.12,0,0,0-4.69,1.57c.91-1.15.94-1.77,1.77-3a5.56,5.56,0,0,1,4.09-2.3c.56-.09.58-.72,0-.82-4.28-.82-8.35,1.49-10.69,4.84,0-.11,0-.23,0-.34.23-1.62.56-2.49,1.37-3.11.48-.37.19-.89-.37-.65a6.19,6.19,0,0,0-3.88,3.09c.47-1.4.28-2,.67-3.4A5.59,5.59,0,0,1,61,15c.5-.29.31-.89-.23-.8-4.31.71-7.36,4.29-8.41,8.25,0-.11,0-.23-.08-.34-.32-1.6-.32-2.53.24-3.4.32-.51-.12-.9-.57-.48a6.28,6.28,0,0,0-2.6,4.25c0-1.48-.4-2-.52-3.43A5.67,5.67,0,0,1,50.5,14.6c.38-.44,0-.93-.49-.66-3.8,2.16-5.46,6.57-5.11,10.65l-.18-.29c-.85-1.39-1.16-2.27-.93-3.27.13-.59-.42-.81-.7-.26a6.29,6.29,0,0,0-1,4.88c-.53-1.37-1.05-1.7-1.65-3a5.69,5.69,0,0,1,.08-4.73c.2-.55-.33-.87-.69-.45-2.84,3.34-2.91,8.05-1.2,11.77l-.26-.2c-1.27-1-1.86-1.74-2-2.77-.07-.59-.66-.61-.73,0a6.22,6.22,0,0,0,.7,4.93c-1-1.1-1.56-1.24-2.58-2.27a5.71,5.71,0,0,1-1.52-4.47c0-.58-.61-.71-.8-.19-1.54,4.13,0,8.57,2.86,11.48l-.32-.1c-1.53-.52-2.33-1-2.8-1.91-.27-.53-.82-.35-.69.26a6.28,6.28,0,0,0,2.33,4.39c-1.27-.71-1.87-.63-3.18-1.25a5.61,5.61,0,0,1-2.95-3.66c-.2-.56-.81-.46-.82.09a11,11,0,0,0,6.58,9.79l-.34,0c-1.61.05-2.53-.12-3.27-.82-.44-.42-.9,0-.57.48A6.21,6.21,0,0,0,32,46.35c-1.44-.22-2,.06-3.42-.08a5.56,5.56,0,0,1-4-2.42c-.37-.45-.91-.15-.73.37,1.44,4.16,5.46,6.57,9.5,6.94l-.32.12c-1.5.61-2.41.76-3.35.36-.55-.23-.86.27-.37.65a6.16,6.16,0,0,0,4.58,1.85c-1.42.29-1.84.74-3.24,1.11A5.49,5.49,0,0,1,26,54.36c-.5-.3-.92.18-.57.6a10.79,10.79,0,0,0,11.27,3.23,2.73,2.73,0,0,1-.25.23c-1.2,1.09-2,1.55-3,1.5-.6,0-.71.55-.13.74a6.15,6.15,0,0,0,4.94.15c-1.25.76-1.49,1.33-2.67,2.16a5.54,5.54,0,0,1-4.62.75c-.56-.11-.79.48-.32.76C34.39,66.73,39,66,42.32,63.62l-.15.31c-.77,1.44-1.37,2.14-2.35,2.45-.57.18-.48.77.13.74a6.15,6.15,0,0,0,4.69-1.57c-.91,1.15-.94,1.77-1.77,3a5.56,5.56,0,0,1-4.09,2.29c-.57.1-.58.73,0,.83,4.28.82,8.36-1.49,10.69-4.84,0,.11,0,.23,0,.34-.23,1.62-.56,2.49-1.37,3.12-.48.36-.2.88.37.64a6.14,6.14,0,0,0,3.87-3.09c-.46,1.4-.28,2-.66,3.4a5.59,5.59,0,0,1-3.06,3.56c-.51.29-.3.88.23.8,4.31-.71,7.36-4.29,8.41-8.25,0,.11,0,.23.07.33.33,1.61.32,2.54-.23,3.41-.32.51.11.9.57.48a6.28,6.28,0,0,0,2.6-4.24c0,1.47.4,2,.51,3.41A5.62,5.62,0,0,1,59,75.11c-.38.45,0,.94.49.67,3.81-2.16,5.45-6.57,5.11-10.65l.18.29c.85,1.39,1.15,2.27.93,3.28-.13.58.41.79.7.25a6.33,6.33,0,0,0,1-4.88c.53,1.37,1,1.7,1.65,3A5.73,5.73,0,0,1,69,71.82c-.21.54.32.87.68.45,2.84-3.34,2.9-8.06,1.19-11.77.09.06.18.14.27.21,1.27,1,1.86,1.73,2,2.75.07.6.65.62.74,0a6.26,6.26,0,0,0-.72-4.93c1,1.1,1.56,1.24,2.58,2.27a5.7,5.7,0,0,1,1.53,4.47c0,.58.6.71.79.19,1.55-4.13,0-8.58-2.85-11.48l.32.1c1.53.52,2.33,1,2.8,1.91.26.53.82.35.69-.26a6.29,6.29,0,0,0-2.34-4.39c1.28.7,1.89.63,3.2,1.25a5.62,5.62,0,0,1,2.94,3.67c.2.54.81.45.82-.1a11,11,0,0,0-6.58-9.8h.34c1.62-.05,2.52.13,3.27.82.44.41.9,0,.57-.48a6.24,6.24,0,0,0-3.69-3.32c1.45.22,2-.06,3.42.08a5.56,5.56,0,0,1,4,2.42c.37.45.91.15.73-.37C84.29,41.34,80.27,38.93,76.23,38.57Zm-22.51-1a.61.61,0,0,1-.6.55H49.83c-.56,0-.83.24-.84.7l-.93,15.77a.58.58,0,0,1-.53.57H45.38a.49.49,0,0,1-.46-.57l.92-15.72c.06-.44-.15-.69-.61-.75H41.79a.52.52,0,0,1-.53-.55l.13-2.36A.62.62,0,0,1,42,34.6H53.32a.53.53,0,0,1,.54.56Zm14,8.44a1.78,1.78,0,0,1-1.88,1.71H59.4L59,54.54a.58.58,0,0,1-.53.57H56.32a.51.51,0,0,1-.47-.57L57,35.18a.6.6,0,0,1,.54-.58h9.09a1.67,1.67,0,0,1,1.66,1.75Z" transform="translate(-8.01 -3.36)"/><path class="cls-4" d="M129.16,46.05V23.66h8.1V19.1H115.51v4.56h8.12V46.05Zm11.63-12.58a32.28,32.28,0,0,0,.54,6.84,7.25,7.25,0,0,0,1.55,3,8.28,8.28,0,0,0,3.21,2.32,15.18,15.18,0,0,0,5.94.89,14.11,14.11,0,0,0,5.26-.81,8.33,8.33,0,0,0,3.22-2.2,7.47,7.47,0,0,0,1.66-3.38,35.93,35.93,0,0,0,.44-6.86V19.1h-5.52V34a28.49,28.49,0,0,1-.25,4.58,3.66,3.66,0,0,1-1.43,2.32,5.59,5.59,0,0,1-3.55,1,6,6,0,0,1-3.65-1,4.27,4.27,0,0,1-1.68-2.65,28.8,28.8,0,0,1-.22-4.51V19.1h-5.52ZM150,13.13h-4.5v4.43H150Zm8,0h-4.52v4.43H158Zm16,32.92V34.8h1.12a9.3,9.3,0,0,1,2.78.3,4.32,4.32,0,0,1,1.67,1.12,42.36,42.36,0,0,1,2.9,4l4,5.87h6.61l-3.34-5.26a31,31,0,0,0-3.15-4.38,12.43,12.43,0,0,0-3-2.25A8.86,8.86,0,0,0,189,31.67a7.17,7.17,0,0,0,1.81-5,7.65,7.65,0,0,0-1.2-4.25,6.18,6.18,0,0,0-3.18-2.58,20.28,20.28,0,0,0-6.38-.73H168.46V46.05Zm0-22.39h4.31c2.24,0,3.59,0,4,.09a3.39,3.39,0,0,1,2.08,1.06,3.17,3.17,0,0,1,.74,2.2,3.43,3.43,0,0,1-.55,2,3,3,0,0,1-1.55,1.15,21.54,21.54,0,0,1-5,.33H174Zm27.67,22.39V37.9l4.48-4.5,7.52,12.65h7.16L210,29.6l10.31-10.5h-7.43l-11.17,12v-12h-5.53V46.05ZM229,19.1h-5.52V46.05H229Zm-.13-6.43h-5.15v4.89h5.15ZM247,46.05V34.74L257.06,19.1H250.7l-6.32,10.66L237.94,19.1h-6.48l10,15.61V46.05Zm33.63,0V41.5H265.33V34.17h13.74V29.63H265.33v-6H280.1V19.1H259.81V46.05Z" transform="translate(-8.01 -3.36)"/><path class="cls-4" d="M119.57,75.57V68.38h2.51a22.27,22.27,0,0,0,4-.27,5.55,5.55,0,0,0,2-.91,5.08,5.08,0,0,0,1.62-1.88,6.13,6.13,0,0,0,.65-2.95,5.94,5.94,0,0,0-1.11-3.72,5,5,0,0,0-2.75-1.86,21.59,21.59,0,0,0-4.58-.29h-6.18V75.57Zm1.86-15.85a17.6,17.6,0,0,1,2.77.14,2.64,2.64,0,0,1,1.55.84,2.45,2.45,0,0,1,.62,1.72,2.51,2.51,0,0,1-.44,1.48,2.55,2.55,0,0,1-1.2.94,10,10,0,0,1-3.06.3h-2.1V59.72ZM148,75.57V72.36H137.35V67.17h9.58V64h-9.58V59.72h10.29V56.5H133.5V75.57Zm11.41,0V59.72h5.65V56.5H149.9v3.22h5.67V75.57Zm12,0v-8h.77a6.83,6.83,0,0,1,1.94.21,3,3,0,0,1,1.16.8,28.49,28.49,0,0,1,2,2.8l2.78,4.15h4.61l-2.33-3.72a22,22,0,0,0-2.19-3.09,8.88,8.88,0,0,0-2.06-1.61,6,6,0,0,0,3.77-1.76,5.08,5.08,0,0,0,1.26-3.54,5.47,5.47,0,0,0-.83-3A4.38,4.38,0,0,0,180.11,57a13.87,13.87,0,0,0-4.44-.52h-8.11V75.57Zm0-15.85h3c1.56,0,2.49,0,2.81.07a2.42,2.42,0,0,1,1.45.75,2.28,2.28,0,0,1,.51,1.55,2.44,2.44,0,0,1-.39,1.44,2,2,0,0,1-1.08.8,14.29,14.29,0,0,1-3.46.24h-2.84Zm17.1,13.58a10,10,0,0,0,13.49,0,10,10,0,0,0,2.5-7.23A10,10,0,0,0,202,58.79a8.94,8.94,0,0,0-6.74-2.61,10.5,10.5,0,0,0-4.11.74,7.55,7.55,0,0,0-2.47,1.73,8.86,8.86,0,0,0-1.77,2.61,12,12,0,0,0-.88,4.9,9.85,9.85,0,0,0,2.51,7.14m2.92-12.2a5.33,5.33,0,0,1,7.65,0A7.16,7.16,0,0,1,200.53,66a7.31,7.31,0,0,1-1.47,5,5.14,5.14,0,0,1-7.58,0A7.11,7.11,0,0,1,190,66a7.22,7.22,0,0,1,1.46-4.93m29.61,14.47V72.36h-9.57V56.65h-3.85V75.57Zm16.28,0V72.36h-9.58V56.65H223.9V75.57Zm17.25,0V72.36H243.93V67.17h9.58V64h-9.58V59.72h10.3V56.5H240.08V75.57Zm7.14,0v-8h.78a6.75,6.75,0,0,1,1.93.21,3.07,3.07,0,0,1,1.17.8,27.32,27.32,0,0,1,2,2.8l2.79,4.15H275l-2.33-3.72a21,21,0,0,0-2.2-3.09,8.67,8.67,0,0,0-2.06-1.61,6,6,0,0,0,3.77-1.76,5,5,0,0,0,1.27-3.54,5.48,5.48,0,0,0-.84-3A4.36,4.36,0,0,0,270.42,57,14,14,0,0,0,266,56.5h-8.1V75.57Zm0-15.85h3c1.56,0,2.5,0,2.81.07a2.45,2.45,0,0,1,1.46.75,2.28,2.28,0,0,1,.51,1.55,2.52,2.52,0,0,1-.39,1.44,2,2,0,0,1-1.08.8,14.4,14.4,0,0,1-3.46.24h-2.85Zm19.11-3.22H277V75.57h3.86ZM280.74,52h-3.59V55.4h3.59Z" transform="translate(-8.01 -3.36)"/><path class="cls-4" d="M8,109.27l5.41-14.08h2l5.76,14.08H19.07L17.43,105H11.54L10,109.27Zm4.06-5.78h4.78l-1.47-3.9c-.45-1.19-.78-2.16-1-2.92a17.74,17.74,0,0,1-.76,2.69Z" transform="translate(-8.01 -3.36)"/><path class="cls-4" d="M28.56,109.27V95.19h1.92l7.39,11v-11h1.79v14.08H37.75L30.35,98.2v11.07Z" transform="translate(-8.01 -3.36)"/><path class="cls-4" d="M48.13,102.41A7.62,7.62,0,0,1,50,96.92a6.39,6.39,0,0,1,4.86-2,6.78,6.78,0,0,1,3.52.93,6.05,6.05,0,0,1,2.38,2.6,8.4,8.4,0,0,1,.82,3.78,8.24,8.24,0,0,1-.86,3.83,5.89,5.89,0,0,1-2.45,2.56,7,7,0,0,1-3.42.87,6.63,6.63,0,0,1-3.55-1,6.21,6.21,0,0,1-2.38-2.62A8.06,8.06,0,0,1,48.13,102.41Zm1.92,0a5.61,5.61,0,0,0,1.37,4,4.78,4.78,0,0,0,6.89,0,6,6,0,0,0,1.36-4.2,7.14,7.14,0,0,0-.58-3,4.43,4.43,0,0,0-1.7-2,4.59,4.59,0,0,0-2.51-.71,4.76,4.76,0,0,0-3.41,1.36C50.52,98.81,50.05,100.32,50.05,102.44Z" transform="translate(-8.01 -3.36)"/><path class="cls-4" d="M69.88,109.27V95.19h1.91l7.4,11v-11H81v14.08H79.06L71.67,98.2v11.07Z" transform="translate(-8.01 -3.36)"/><path class="cls-4" d="M90.19,94.32V92.17h2.14v2.15Zm.14,15V95.19h1.86v14.08Z" transform="translate(-8.01 -3.36)"/><path class="cls-4" d="M101.32,109.27V95.19h2.8l3.34,10c.31.93.53,1.62.67,2.08q.24-.76.75-2.25l3.37-9.8h2.51v14.08H113V97.48l-4.09,11.79h-1.68l-4.07-12v12Z" transform="translate(-8.01 -3.36)"/><path class="cls-4" d="M134.47,102.41a7.67,7.67,0,0,1,1.88-5.49,6.42,6.42,0,0,1,4.86-2,6.76,6.76,0,0,1,3.52.93,6.13,6.13,0,0,1,2.39,2.6,8.53,8.53,0,0,1,.82,3.78,8.25,8.25,0,0,1-.87,3.83,5.84,5.84,0,0,1-2.45,2.56,7,7,0,0,1-3.42.87,6.65,6.65,0,0,1-3.55-1,6.19,6.19,0,0,1-2.37-2.62A7.93,7.93,0,0,1,134.47,102.41Zm1.92,0a5.65,5.65,0,0,0,1.37,4,4.79,4.79,0,0,0,6.9,0,6,6,0,0,0,1.36-4.2,7.3,7.3,0,0,0-.58-3,4.45,4.45,0,0,0-1.71-2,4.59,4.59,0,0,0-2.51-.71,4.73,4.73,0,0,0-3.4,1.36C136.87,98.81,136.39,100.32,136.39,102.44Z" transform="translate(-8.01 -3.36)"/><path class="cls-4" d="M156.27,109.27V95.19h6.24a8.19,8.19,0,0,1,2.87.38,3.12,3.12,0,0,1,1.56,1.34,4,4,0,0,1,.59,2.12,3.54,3.54,0,0,1-1,2.53,4.93,4.93,0,0,1-3,1.3,5.18,5.18,0,0,1,1.13.7,9.63,9.63,0,0,1,1.54,1.88l2.45,3.83h-2.34l-1.87-2.93c-.54-.85-1-1.49-1.34-1.94a4.12,4.12,0,0,0-.95-.94,2.78,2.78,0,0,0-.85-.38,6.15,6.15,0,0,0-1-.06h-2.17v6.25Zm1.86-7.87h4a6.21,6.21,0,0,0,2-.26,2.13,2.13,0,0,0,1.09-.85,2.27,2.27,0,0,0,.38-1.26,2.07,2.07,0,0,0-.73-1.64,3.39,3.39,0,0,0-2.29-.65h-4.46Z" transform="translate(-8.01 -3.36)"/><path class="cls-4" d="M179.58,109.27V96.85h-4.64V95.19H186.1v1.66h-4.66v12.42Z" transform="translate(-8.01 -3.36)"/><path class="cls-4" d="M190.91,109.27l5.41-14.08h2l5.76,14.08H202L200.32,105h-5.88l-1.55,4.27Zm4.06-5.78h4.78l-1.47-3.9c-.45-1.19-.78-2.16-1-2.92a17.74,17.74,0,0,1-.76,2.69Z" transform="translate(-8.01 -3.36)"/><path class="cls-4" d="M211.4,109.27V95.19h1.87v7l7-7h2.53l-5.91,5.7,6.17,8.38h-2.46l-5-7.13-2.3,2.25v4.88Z" transform="translate(-8.01 -3.36)"/><path class="cls-4" d="M230.43,109.27V95.19h1.86v12.42h6.94v1.66Z" transform="translate(-8.01 -3.36)"/><path class="cls-4" d="M247.67,109.27V95.19h1.86v14.08Z" transform="translate(-8.01 -3.36)"/><path class="cls-4" d="M265.31,103.75v-1.66h6v5.23a10.54,10.54,0,0,1-2.83,1.65,8.34,8.34,0,0,1-3,.55,8,8,0,0,1-3.77-.89,5.89,5.89,0,0,1-2.56-2.57,8.16,8.16,0,0,1-.86-3.76,8.6,8.6,0,0,1,.86-3.83,5.74,5.74,0,0,1,2.47-2.65A7.74,7.74,0,0,1,265.3,95a7.34,7.34,0,0,1,2.76.49A4.63,4.63,0,0,1,270,96.82a6.21,6.21,0,0,1,1.06,2.3l-1.68.47a5,5,0,0,0-.79-1.69,3.24,3.24,0,0,0-1.34-1,4.86,4.86,0,0,0-1.94-.37,5.71,5.71,0,0,0-2.21.39,4.28,4.28,0,0,0-1.51,1,4.92,4.92,0,0,0-.88,1.4,7.32,7.32,0,0,0-.54,2.83,6.75,6.75,0,0,0,.65,3.15,4.1,4.1,0,0,0,1.89,1.88,5.82,5.82,0,0,0,2.63.62,6.29,6.29,0,0,0,2.36-.47,6.17,6.17,0,0,0,1.75-1v-2.62Zm1.88-11.92h1.18a2.78,2.78,0,0,1-.88,1.85,2.85,2.85,0,0,1-1.95.64,2.88,2.88,0,0,1-2-.64,2.73,2.73,0,0,1-.87-1.85h1.18a1.61,1.61,0,0,0,.53,1,1.68,1.68,0,0,0,1.07.32,1.89,1.89,0,0,0,1.18-.31A1.64,1.64,0,0,0,267.19,91.83Z" transform="translate(-8.01 -3.36)"/><path class="cls-4" d="M280.24,109.27V95.19h1.86v14.08Z" transform="translate(-8.01 -3.36)"/></svg>