<svg width="275" height="107" viewBox="0 0 275 107" fill="none" xmlns="http://www.w3.org/2000/svg">
<g clip-path="url(#clip0_1229_56)">
<path d="M93.3509 13.7299C93.2609 10.7999 92.5809 8.27995 91.0309 6.72995C89.2538 5.14195 87.0744 4.07301 84.7309 3.63995C72.216 1.1789 59.4852 -0.0171156 46.7309 0.0699481C33.9765 -0.0179955 21.2457 1.17803 8.7309 3.63995H8.6909C6.34421 4.08161 4.1645 5.16108 2.3909 6.75995C0.840899 8.32995 0.160899 10.8499 0.080899 13.7599C-0.142115 24.7527 0.526744 35.7454 2.0809 46.63C3.2987 55.3014 5.0859 63.8833 7.4309 72.3199C8.7409 76.6399 11.2309 79.5699 15.6509 80.2699C25.9043 81.8937 36.2697 82.7063 46.6509 82.6999C57.0321 82.7065 67.3976 81.894 77.6509 80.2699C82.0809 79.5699 84.5609 76.6399 85.8709 72.3199C88.2425 63.8884 90.0564 55.3098 91.3009 46.6399C92.8687 35.743 93.5543 24.7372 93.3509 13.7299Z" fill="#E60004"/>
<path d="M46.697 80.5399C36.4133 80.547 26.1449 79.7445 15.987 78.1399C12.757 77.6399 10.687 75.5699 9.50704 71.6399C7.18635 63.3063 5.42245 54.8276 4.22704 46.2599C2.67996 35.4887 2.01109 24.6095 2.22704 13.7299C2.29704 11.1499 2.88704 9.21988 3.93704 8.15988C5.43168 6.86188 7.2489 5.99128 9.19704 5.63988H9.32704C21.5157 3.26345 33.909 2.09447 46.327 2.14988H47.047C59.4985 2.08684 71.9257 3.25586 84.147 5.63988H84.227C86.1853 5.9965 88.0102 6.87782 89.507 8.18988C90.507 9.24988 91.147 11.1899 91.227 13.7799C91.4394 24.6528 90.7705 35.525 89.227 46.2899C88.0311 54.8682 86.2639 63.357 83.937 71.6999C82.767 75.5599 80.697 77.6199 77.437 78.1299C67.2857 79.7324 57.0241 80.5349 46.747 80.5299L46.697 80.5399Z" fill="white"/>
<path d="M58.6096 31.24H49.5196C49.3745 31.2545 49.2396 31.3214 49.1403 31.4282C49.0409 31.5349 48.9838 31.6742 48.9796 31.82L47.8396 51.18C47.8313 51.2486 47.8371 51.3181 47.8564 51.3844C47.8758 51.4508 47.9085 51.5124 47.9525 51.5657C47.9964 51.619 48.0507 51.6629 48.1121 51.6945C48.1735 51.7262 48.2407 51.7451 48.3096 51.75H50.4596C50.6029 51.7376 50.7365 51.6724 50.8344 51.5671C50.9324 51.4618 50.9877 51.3238 50.9896 51.18L51.3896 44.31H57.8496C58.3203 44.3373 58.7825 44.1768 59.135 43.8638C59.4874 43.5507 59.7013 43.1106 59.7296 42.64L60.2696 33.03C60.2861 32.8016 60.2554 32.5724 60.1795 32.3564C60.1036 32.1404 59.9841 31.9423 59.8284 31.7744C59.6728 31.6066 59.4842 31.4725 59.2746 31.3806C59.0649 31.2886 58.8386 31.2408 58.6096 31.24Z" fill="white"/>
<path d="M55.9874 34.76H52.2374C52.1648 34.7572 52.0939 34.7828 52.0398 34.8313C51.9857 34.8798 51.9525 34.9475 51.9474 35.02L51.6174 40.64C51.616 40.6737 51.6215 40.7072 51.6335 40.7387C51.6454 40.7702 51.6636 40.799 51.687 40.8233C51.7103 40.8476 51.7383 40.8669 51.7693 40.8801C51.8004 40.8932 51.8337 40.9 51.8674 40.9H55.6374C55.7477 40.9054 55.858 40.8889 55.962 40.8516C56.066 40.8143 56.1616 40.7568 56.2433 40.6825C56.3251 40.6082 56.3914 40.5185 56.4384 40.4186C56.4854 40.3186 56.5123 40.2103 56.5174 40.1L56.7774 35.55C56.7814 35.4451 56.7642 35.3404 56.7269 35.2423C56.6895 35.1442 56.6326 35.0546 56.5598 34.979C56.487 34.9033 56.3996 34.8432 56.303 34.8021C56.2063 34.761 56.1024 34.7399 55.9974 34.74" fill="#E6000D"/>
<path d="M45.3109 31.2399H33.9909C33.8381 31.2417 33.6913 31.2998 33.5787 31.4031C33.4661 31.5065 33.3957 31.6478 33.3809 31.7999L33.2509 34.1599C33.2467 34.2315 33.2574 34.3032 33.2823 34.3705C33.3072 34.4378 33.3458 34.4992 33.3956 34.5509C33.4453 34.6025 33.5053 34.6433 33.5716 34.6707C33.6379 34.6981 33.7092 34.7114 33.7809 34.7099H37.2209C37.6809 34.7699 37.8909 35.0199 37.8309 35.4599L36.9109 51.1799C36.8995 51.2482 36.9027 51.3181 36.9203 51.385C36.9379 51.4519 36.9694 51.5144 37.0129 51.5682C37.0563 51.622 37.1107 51.6661 37.1724 51.6974C37.2341 51.7287 37.3018 51.7466 37.3709 51.7499H39.5209C39.6642 51.7375 39.7977 51.6723 39.8957 51.567C39.9936 51.4617 40.0489 51.3237 40.0509 51.1799L40.9909 35.4099C40.9909 34.9499 41.2709 34.7199 41.8309 34.7099H45.1209C45.2711 34.7082 45.4153 34.6511 45.526 34.5496C45.6367 34.4481 45.7061 34.3094 45.7209 34.1599L45.8609 31.7999C45.8651 31.7261 45.8539 31.6522 45.8279 31.5831C45.8019 31.5139 45.7617 31.4509 45.7099 31.3981C45.6581 31.3454 45.5958 31.3041 45.5271 31.2768C45.4584 31.2496 45.3847 31.237 45.3109 31.2399Z" fill="white"/>
<path d="M68.2204 35.21L68.5404 35.07C70.0404 34.47 70.9504 34.32 71.8904 34.72C72.4404 34.95 72.7504 34.44 72.2604 34.07C71.6659 33.4595 70.9507 32.9797 70.1604 32.6612C69.3701 32.3427 68.5221 32.1924 67.6704 32.22C69.1104 31.93 69.5204 31.48 70.9104 31.11C71.6958 30.916 72.5141 30.8951 73.3084 31.0488C74.1027 31.2025 74.854 31.527 75.5104 32C76.0004 32.3 76.4104 31.82 76.0604 31.4C73.3004 27.99 68.7204 27.11 64.8004 28.17L65.0504 27.94C66.2604 26.85 67.0504 26.39 68.0504 26.44C68.6504 26.44 68.7604 25.89 68.1804 25.71C67.4128 25.3431 66.5775 25.1394 65.7272 25.1119C64.8769 25.0843 64.0301 25.2335 63.2404 25.55C64.4904 24.79 64.7304 24.21 65.9104 23.39C66.5798 22.9286 67.3434 22.622 68.1459 22.4922C68.9485 22.3625 69.7698 22.413 70.5504 22.64C71.1304 22.75 71.3504 22.16 70.8804 21.88C67.1304 19.63 62.5304 20.39 59.1904 22.74C59.2504 22.64 59.3004 22.53 59.3604 22.44C60.1304 21 60.7204 20.29 61.7004 19.98C62.2704 19.8 62.1704 19.22 61.5704 19.24C60.7225 19.1609 59.8673 19.2598 59.0598 19.5301C58.2522 19.8004 57.5099 20.2364 56.8804 20.81C57.7904 19.66 57.8204 19.04 58.6504 17.81C59.1233 17.1516 59.7344 16.6047 60.4409 16.2074C61.1474 15.8101 61.9322 15.572 62.7404 15.51C63.3004 15.42 63.3204 14.79 62.7404 14.69C58.4604 13.87 54.3904 16.18 52.0504 19.53C52.0504 19.42 52.0504 19.3 52.0504 19.19C52.2804 17.57 52.6104 16.7 53.4204 16.08C53.9004 15.71 53.6104 15.19 53.0504 15.43C52.2256 15.6497 51.4551 16.0376 50.7874 16.5693C50.1197 17.1011 49.5691 17.7652 49.1704 18.52C49.6404 17.12 49.4504 16.52 49.8404 15.12C50.0818 14.3462 50.4885 13.6342 51.0325 13.0333C51.5764 12.4324 52.2445 11.957 52.9904 11.64C53.4904 11.35 53.3004 10.75 52.7604 10.84C48.4504 11.55 45.4004 15.13 44.3504 19.09C44.3504 18.98 44.3504 18.86 44.2704 18.75C43.9504 17.15 43.9504 16.22 44.5104 15.35C44.8304 14.84 44.3904 14.45 43.9404 14.87C43.24 15.3635 42.6481 15.9952 42.2009 16.7261C41.7538 17.457 41.4609 18.2717 41.3404 19.12C41.3404 17.64 40.9404 17.12 40.8204 15.69C40.7602 14.8716 40.8783 14.0498 41.1666 13.2815C41.4549 12.5132 41.9066 11.8167 42.4904 11.24C42.8704 10.8 42.4904 10.31 42.0004 10.58C38.2004 12.74 36.5404 17.15 36.8904 21.23L36.7104 20.94C35.8604 19.55 35.5504 18.67 35.7804 17.67C35.9104 17.08 35.3604 16.86 35.0804 17.41C34.5902 18.1124 34.2487 18.9076 34.0767 19.7468C33.9048 20.5859 33.906 21.4513 34.0804 22.29C33.5504 20.92 33.0304 20.59 32.4304 19.29C32.1037 18.542 31.9417 17.7324 31.9556 16.9163C31.9694 16.1001 32.1586 15.2965 32.5104 14.56C32.7104 14.01 32.1804 13.69 31.8204 14.11C28.9804 17.45 28.9104 22.16 30.6204 25.88L30.3604 25.68C29.0904 24.68 28.5004 23.94 28.3604 22.91C28.2904 22.32 27.7004 22.3 27.6304 22.91C27.4012 23.7356 27.3451 24.5997 27.4656 25.4481C27.586 26.2964 27.8805 27.1108 28.3304 27.84C27.3304 26.74 26.7704 26.6 25.7504 25.57C25.193 24.9764 24.7689 24.2704 24.5068 23.4994C24.2446 22.7285 24.1504 21.9103 24.2304 21.1C24.2304 20.52 23.6204 20.39 23.4304 20.91C21.8904 25.04 23.4304 29.48 26.2904 32.39L25.9704 32.29C24.4404 31.77 23.6404 31.29 23.1704 30.38C22.9004 29.85 22.3504 30.03 22.4804 30.64C22.5497 31.4917 22.792 32.3204 23.1927 33.0753C23.5933 33.8301 24.1438 34.4953 24.8104 35.03C23.5404 34.32 22.9404 34.4 21.6304 33.78C20.9032 33.4196 20.2629 32.9057 19.7536 32.2739C19.2443 31.642 18.8781 30.9071 18.6804 30.12C18.4804 29.56 17.8704 29.66 17.8604 30.21C17.9144 32.2982 18.562 34.3278 19.7272 36.0615C20.8924 37.7952 22.5273 39.1613 24.4404 40H24.1004C22.4904 40.05 21.5704 39.88 20.8304 39.18C20.3904 38.76 19.9304 39.18 20.2604 39.66C20.6174 40.4432 21.1333 41.1437 21.7755 41.717C22.4176 42.2902 23.1718 42.7237 23.9904 42.99C22.5504 42.77 21.9904 43.05 20.5704 42.91C19.768 42.8212 18.9945 42.5587 18.3037 42.1408C17.6129 41.7229 17.0215 41.1596 16.5704 40.49C16.2004 40.04 15.6604 40.34 15.8404 40.86C17.2804 45.02 21.3004 47.43 25.3404 47.8L25.0204 47.92C23.5204 48.53 22.6104 48.68 21.6704 48.28C21.1204 48.05 20.8104 48.55 21.3004 48.93C21.8949 49.5377 22.6086 50.0158 23.3969 50.3341C24.1851 50.6525 25.0307 50.8043 25.8804 50.78C24.4604 51.07 24.0404 51.52 22.6404 51.89C21.848 52.098 21.0192 52.126 20.2145 51.972C19.4099 51.818 18.65 51.4859 17.9904 51C17.4904 50.7 17.0704 51.18 17.4204 51.6C18.7878 53.1673 20.579 54.3061 22.5785 54.8791C24.5779 55.4522 26.7004 55.4351 28.6904 54.83C28.6119 54.9117 28.5284 54.9886 28.4404 55.06C27.2404 56.15 26.4404 56.61 25.4404 56.56C24.8404 56.56 24.7304 57.11 25.3104 57.3C26.0787 57.6653 26.9144 57.8672 27.7647 57.893C28.615 57.9189 29.4614 57.768 30.2504 57.45C29.0004 58.21 28.7604 58.78 27.5804 59.61C26.9117 60.0646 26.1516 60.3673 25.3535 60.4968C24.5554 60.6264 23.7386 60.5797 22.9604 60.36C22.4004 60.25 22.1704 60.84 22.6404 61.12C26.3804 63.37 30.9904 62.64 34.3104 60.26L34.1604 60.57C33.3904 62.01 32.7904 62.71 31.8104 63.02C31.2404 63.2 31.3304 63.79 31.9404 63.76C32.7883 63.8371 33.6429 63.7375 34.4502 63.4672C35.2575 63.197 35.9999 62.762 36.6304 62.19C35.7204 63.34 35.6904 63.96 34.8604 65.19C34.3865 65.8464 33.775 66.3915 33.0685 66.787C32.3621 67.1826 31.5778 67.4191 30.7704 67.48C30.2004 67.58 30.1904 68.21 30.7704 68.31C35.0504 69.13 39.1304 66.82 41.4604 63.47C41.4604 63.58 41.4604 63.7 41.4604 63.81C41.2304 65.43 40.9004 66.3 40.0904 66.93C39.6104 67.29 39.8904 67.81 40.4604 67.57C41.2847 67.3518 42.0545 66.9644 42.7208 66.4324C43.3871 65.9004 43.9353 65.2355 44.3304 64.48C43.8704 65.88 44.0504 66.48 43.6704 67.88C43.449 68.6597 43.0606 69.382 42.5322 69.9967C42.0038 70.6115 41.3481 71.1039 40.6104 71.44C40.1004 71.73 40.3104 72.32 40.8404 72.24C45.1504 71.53 48.2004 67.95 49.2504 63.99C49.2504 64.1 49.2504 64.22 49.3204 64.32C49.6504 65.93 49.6404 66.86 49.0904 67.73C48.7704 68.24 49.2004 68.63 49.6604 68.21C50.3597 67.7175 50.951 67.0874 51.3981 66.3583C51.8451 65.6292 52.1386 64.8165 52.2604 63.97C52.2604 65.44 52.6604 65.97 52.7704 67.38C52.8082 68.1939 52.6686 69.0062 52.3613 69.7608C52.0539 70.5154 51.5862 71.1941 50.9904 71.75C50.6104 72.2 50.9904 72.69 51.4804 72.42C55.2904 70.26 56.9304 65.85 56.5904 61.77L56.7704 62.06C57.6204 63.45 57.9204 64.33 57.7004 65.34C57.5704 65.92 58.1104 66.13 58.4004 65.59C58.8885 64.8865 59.2287 64.0913 59.4006 63.2525C59.5725 62.4137 59.5724 61.5487 59.4004 60.71C59.9304 62.08 60.4004 62.41 61.0504 63.71C61.3807 64.46 61.5462 65.2721 61.5358 66.0915C61.5255 66.9109 61.3395 67.7186 60.9904 68.46C60.7804 69 61.3104 69.33 61.6704 68.91C64.5104 65.57 64.5704 60.85 62.8604 57.14C62.9504 57.2 63.0404 57.28 63.1304 57.35C64.4004 58.35 64.9904 59.08 65.1304 60.1C65.2004 60.7 65.7804 60.72 65.8704 60.1C66.0943 59.2727 66.1459 58.4083 66.022 57.5603C65.8982 56.7122 65.6015 55.8987 65.1504 55.17C66.1504 56.27 66.7104 56.41 67.7304 57.44C68.2902 58.0323 68.7164 58.7379 68.9804 59.509C69.2443 60.2801 69.3398 61.0988 69.2604 61.91C69.2604 62.49 69.8604 62.62 70.0504 62.1C71.6004 57.97 70.0504 53.52 67.2004 50.62L67.5204 50.72C69.0504 51.24 69.8504 51.72 70.3204 52.63C70.5804 53.16 71.1404 52.98 71.0104 52.37C70.9394 51.5176 70.6952 50.6886 70.2929 49.9338C69.8905 49.179 69.3384 48.5142 68.6704 47.98C69.9504 48.68 70.5604 48.61 71.8704 49.23C72.5964 49.5931 73.2352 50.1092 73.7427 50.7427C74.2502 51.3762 74.6145 52.1122 74.8104 52.9C75.0104 53.44 75.6204 53.35 75.6304 52.8C75.5783 50.71 74.9316 48.6782 73.7663 46.9426C72.6009 45.207 70.9651 43.8394 69.0504 43H69.3904C71.0104 42.95 71.9104 43.13 72.6604 43.82C73.1004 44.23 73.5604 43.82 73.2304 43.34C72.8752 42.5636 72.3644 41.8683 71.7297 41.2973C71.095 40.7262 70.3499 40.2915 69.5404 40.02C70.9904 40.24 71.5404 39.96 72.9604 40.1C73.7629 40.1887 74.5364 40.4512 75.2271 40.8691C75.9179 41.287 76.5094 41.8504 76.9604 42.52C77.3304 42.97 77.8704 42.67 77.6904 42.15C76.2804 37.98 72.2604 35.57 68.2204 35.21ZM45.7104 34.21C45.6957 34.3594 45.6263 34.4982 45.5156 34.5997C45.4049 34.7012 45.2606 34.7582 45.1104 34.76H41.8204C41.2604 34.76 40.9904 35 40.9804 35.46L40.0504 51.23C40.0485 51.3738 39.9932 51.5117 39.8952 51.6171C39.7973 51.7224 39.6637 51.7876 39.5204 51.8H37.3704C37.3013 51.7967 37.2337 51.7788 37.172 51.7475C37.1103 51.7161 37.0559 51.6721 37.0124 51.6183C36.969 51.5644 36.9374 51.502 36.9198 51.435C36.9022 51.3681 36.899 51.2982 36.9104 51.23L37.8304 35.51C37.8904 35.07 37.6804 34.82 37.2204 34.76H33.7804C33.7087 34.7615 33.6374 34.7481 33.5711 34.7207C33.5048 34.6934 33.4449 34.6526 33.3951 34.6009C33.3453 34.5492 33.3068 34.4878 33.2819 34.4206C33.257 34.3533 33.2463 34.2816 33.2504 34.21L33.3804 31.85C33.383 31.689 33.4481 31.5353 33.5619 31.4215C33.6758 31.3076 33.8294 31.2425 33.9904 31.24H45.3104C45.3835 31.2385 45.456 31.2521 45.5235 31.28C45.5911 31.3078 45.6521 31.3494 45.7028 31.402C45.7535 31.4546 45.7928 31.517 45.8182 31.5855C45.8436 31.654 45.8546 31.727 45.8504 31.8L45.7104 34.21ZM59.7104 42.65C59.7015 42.8864 59.6455 43.1187 59.5457 43.3333C59.446 43.5479 59.3044 43.7404 59.1294 43.8996C58.9543 44.0588 58.7493 44.1816 58.5263 44.2606C58.3032 44.3397 58.0667 44.3734 57.8304 44.36H51.3904L50.9904 51.18C50.9885 51.3238 50.9332 51.4617 50.8352 51.5671C50.7373 51.6724 50.6037 51.7376 50.4604 51.75H48.3104C48.2415 51.7451 48.1743 51.7262 48.1129 51.6945C48.0515 51.6628 47.9972 51.619 47.9532 51.5657C47.9093 51.5124 47.8766 51.4507 47.8572 51.3844C47.8378 51.3181 47.8321 51.2486 47.8404 51.18L48.9904 31.82C48.9946 31.6742 49.0516 31.5349 49.151 31.4281C49.2504 31.3214 49.3853 31.2545 49.5304 31.24H58.6204C58.8458 31.2411 59.0686 31.2878 59.2754 31.3772C59.4823 31.4667 59.6689 31.5971 59.8239 31.7606C59.979 31.9242 60.0994 32.1174 60.1779 32.3286C60.2563 32.5399 60.2912 32.7649 60.2804 32.99L59.7104 42.65Z" fill="#E60004"/>
<path d="M121.15 42.6901V20.3001H129.25V15.7401H107.5V20.3001H115.62V42.6901H121.15ZM132.78 30.1101C132.716 32.4028 132.898 34.6957 133.32 36.9501C133.593 38.0581 134.124 39.086 134.87 39.9501C135.737 40.9717 136.838 41.7678 138.08 42.2701C139.981 42.9594 142 43.262 144.02 43.1601C145.809 43.2262 147.594 42.9513 149.28 42.3501C150.512 41.8818 151.616 41.1278 152.5 40.1501C153.333 39.1836 153.904 38.02 154.16 36.7701C154.526 34.5027 154.673 32.2055 154.6 29.9101V15.7401H149.08V30.6401C149.12 32.171 149.036 33.7026 148.83 35.2201C148.67 36.1486 148.158 36.9796 147.4 37.5401C146.364 38.2654 145.112 38.6179 143.85 38.5401C142.557 38.6092 141.277 38.2584 140.2 37.5401C139.324 36.9019 138.723 35.9546 138.52 34.8901C138.329 33.3948 138.255 31.8868 138.3 30.3801V15.7401H132.78V30.1101ZM141.99 9.77006H137.49V14.2001H141.99V9.77006ZM149.99 9.77006H145.47V14.2001H149.99V9.77006ZM165.99 42.6901V31.4401H167.11C168.046 31.3994 168.984 31.5005 169.89 31.7401C170.527 31.9768 171.099 32.3606 171.56 32.8601C172.604 34.1358 173.572 35.4714 174.46 36.8601L178.46 42.7301H185.07L181.73 37.4701C180.809 35.9213 179.755 34.4557 178.58 33.0901C177.7 32.1927 176.688 31.434 175.58 30.8401C177.622 30.6483 179.534 29.7541 180.99 28.3101C182.212 26.937 182.86 25.1471 182.8 23.3101C182.826 21.8062 182.409 20.328 181.6 19.0601C180.864 17.8637 179.742 16.9537 178.42 16.4801C176.346 15.8994 174.192 15.653 172.04 15.7501H160.45V42.6901H165.99ZM165.99 20.3001H170.3C172.54 20.3001 173.89 20.3001 174.3 20.3901C175.097 20.486 175.834 20.8616 176.38 21.4501C176.896 22.0635 177.16 22.8495 177.12 23.6501C177.147 24.3575 176.955 25.0561 176.57 25.6501C176.194 26.1937 175.649 26.5979 175.02 26.8001C173.372 27.1042 171.694 27.215 170.02 27.1301H165.99V20.3001ZM193.66 42.6901V34.5401L198.14 30.0401L205.66 42.6901H212.82L201.99 26.2401L212.3 15.7401H204.87L193.7 27.7401V15.7401H188.17V42.6901H193.66ZM220.99 15.7401H215.47V42.6901H220.99V15.7401ZM220.86 9.31006H215.71V14.2001H220.86V9.31006ZM238.99 42.6901V31.3801L249.05 15.7401H242.69L236.37 26.4001L229.93 15.7401H223.45L233.45 31.3501V42.6901H238.99ZM272.62 42.6901V38.1401H257.32V30.8101H271.06V26.2701H257.32V20.2701H272.09V15.7401H251.8V42.6901H272.62Z" fill="white"/>
<path d="M111.559 72.2099V65.0199H114.069C115.407 65.0503 116.746 64.96 118.069 64.7499C118.789 64.5829 119.469 64.2735 120.069 63.8399C120.756 63.3568 121.312 62.7109 121.689 61.9599C122.148 61.0462 122.372 60.0321 122.339 59.0099C122.396 57.6806 122.005 56.3706 121.229 55.2899C120.551 54.3748 119.581 53.7186 118.479 53.4299C116.967 53.1708 115.431 53.0736 113.899 53.1399H107.719V72.2099H111.559ZM113.419 56.3599C114.344 56.3336 115.271 56.3804 116.189 56.4999C116.786 56.594 117.334 56.8906 117.739 57.3399C118.16 57.8117 118.382 58.428 118.359 59.0599C118.371 59.5872 118.217 60.105 117.919 60.5399C117.624 60.9683 117.205 61.2962 116.719 61.4799C115.72 61.737 114.688 61.8382 113.659 61.7799H111.559V56.3599H113.419ZM139.989 72.2099V68.9999H129.339V63.8099H138.919V60.6399H129.339V56.3599H139.629V53.1399H125.489V72.2099H139.989ZM151.399 72.2099V56.3599H157.049V53.1399H141.889V56.3599H147.559V72.2099H151.399ZM163.399 72.2099V64.2099H164.169C164.822 64.1867 165.475 64.2574 166.109 64.4199C166.553 64.5907 166.951 64.8649 167.269 65.2199C167.991 66.1121 168.659 67.0471 169.269 68.0199L172.049 72.1699H176.659L174.329 68.4499C173.689 67.3589 172.956 66.325 172.139 65.3599C171.535 64.7245 170.841 64.182 170.079 63.7499C171.505 63.6317 172.842 63.0074 173.849 61.9899C174.706 61.0143 175.157 59.7476 175.109 58.4499C175.128 57.3906 174.84 56.3484 174.279 55.4499C173.773 54.6217 173.006 53.985 172.099 53.6399C170.657 53.2276 169.157 53.052 167.659 53.1199H159.549V72.2099H163.399ZM163.399 56.3599H166.399C167.959 56.3599 168.889 56.3599 169.209 56.4299C169.764 56.5044 170.277 56.7695 170.659 57.1799C171.014 57.616 171.196 58.168 171.169 58.7299C171.192 59.2388 171.056 59.7424 170.779 60.1699C170.522 60.5532 170.14 60.8358 169.699 60.9699C168.559 61.1901 167.398 61.2707 166.239 61.2099H163.399V56.3599ZM180.499 69.9399C182.342 71.6236 184.748 72.5571 187.244 72.5571C189.74 72.5571 192.146 71.6236 193.989 69.9399C195.747 67.9565 196.647 65.356 196.489 62.7099C196.574 61.3915 196.396 60.0693 195.967 58.8197C195.538 57.5702 194.866 56.418 193.989 55.4299C193.109 54.5497 192.055 53.8628 190.894 53.4134C189.734 52.964 188.492 52.7618 187.249 52.8199C185.843 52.7889 184.445 53.0405 183.139 53.5599C182.207 53.9646 181.367 54.553 180.669 55.2899C179.927 56.047 179.328 56.931 178.899 57.8999C178.266 59.4537 177.966 61.123 178.019 62.7999C177.946 64.0967 178.13 65.3952 178.561 66.6206C178.991 67.846 179.66 68.974 180.529 69.9399M183.449 57.7399C183.946 57.2279 184.54 56.8209 185.197 56.543C185.854 56.265 186.56 56.1218 187.274 56.1218C187.987 56.1218 188.693 56.265 189.35 56.543C190.007 56.8209 190.602 57.2279 191.099 57.7399C192.158 59.1435 192.663 60.8876 192.519 62.6399C192.66 64.4306 192.136 66.2104 191.049 67.6399C190.567 68.1655 189.982 68.5852 189.329 68.8724C188.677 69.1595 187.972 69.3078 187.259 69.3078C186.546 69.3078 185.841 69.1595 185.188 68.8724C184.536 68.5852 183.95 68.1655 183.469 67.6399C182.36 66.2208 181.831 64.4338 181.989 62.6399C181.854 60.8731 182.374 59.1184 183.449 57.7099M213.059 72.1799V68.9999H203.489V53.2899H199.639V72.2099L213.059 72.1799ZM229.339 72.1799V68.9999H219.759V53.2899H215.889V72.2099L229.339 72.1799ZM246.589 72.1799V68.9999H235.919V63.8099H245.499V60.6399H235.919V56.3599H246.219V53.1399H232.069V72.2099L246.589 72.1799ZM253.729 72.1799V64.1799H254.509C255.159 64.1565 255.809 64.2273 256.439 64.3899C256.886 64.5616 257.286 64.8356 257.609 65.1899C258.334 66.0803 259.002 67.0155 259.609 67.9899L262.399 72.1399H266.989L264.659 68.4199C264.02 67.3256 263.284 66.2914 262.459 65.3299C261.857 64.6922 261.163 64.1493 260.399 63.7199C261.825 63.6017 263.162 62.9774 264.169 61.9599C265.037 60.9901 265.492 59.7202 265.439 58.4199C265.455 57.3597 265.163 56.3176 264.599 55.4199C264.086 54.6002 263.316 53.974 262.409 53.6399C260.971 53.2387 259.479 53.0699 257.989 53.1399H249.889V72.2099L253.729 72.1799ZM253.729 56.3299H256.729C258.289 56.3299 259.229 56.3299 259.539 56.3999C260.097 56.4746 260.613 56.7395 260.999 57.1499C261.354 57.586 261.536 58.138 261.509 58.6999C261.527 59.2083 261.391 59.7103 261.119 60.1399C260.862 60.5232 260.48 60.8058 260.039 60.9399C258.899 61.159 257.738 61.2396 256.579 61.1799H253.729V56.3299ZM272.839 53.1099H268.989V72.2099H272.849L272.839 53.1099ZM272.729 48.6399H269.139V52.0399H272.729V48.6399Z" fill="white"/>
<path d="M-0.0078125 105.91L5.40219 91.8301H7.40219L13.1622 105.91H11.0622L9.42219 101.64H3.53219L1.99219 105.91H-0.0078125ZM4.05219 100.13H8.83219L7.36219 96.2301C6.91219 95.0401 6.58219 94.0701 6.36219 93.3101C6.18 94.2253 5.92588 95.1248 5.60219 96.0001L4.05219 100.13Z" fill="white"/>
<path d="M20.5469 105.91V91.8301H22.4669L29.8569 102.83V91.8301H31.6469V105.91H29.7369L22.3369 94.8401V105.91H20.5469Z" fill="white"/>
<path d="M40.1163 99.05C39.9916 97.045 40.6637 95.0719 41.9863 93.56C42.6082 92.9011 43.3632 92.382 44.2011 92.0372C45.039 91.6924 45.9407 91.5297 46.8463 91.56C48.0824 91.5432 49.2997 91.8648 50.3663 92.49C51.4001 93.1012 52.2286 94.0063 52.7463 95.09C53.3099 96.269 53.5907 97.5633 53.5663 98.87C53.5923 100.197 53.2973 101.511 52.7063 102.7C52.1717 103.785 51.3163 104.678 50.2563 105.26C49.2093 105.837 48.0319 106.137 46.8363 106.13C45.5822 106.139 44.3512 105.792 43.2863 105.13C42.2556 104.506 41.4286 103.596 40.9063 102.51C40.3891 101.43 40.1193 100.248 40.1163 99.05ZM42.0363 99.05C41.9538 100.511 42.4454 101.946 43.4063 103.05C43.8523 103.514 44.3873 103.882 44.9792 104.134C45.5712 104.386 46.2079 104.516 46.8513 104.516C47.4946 104.516 48.1313 104.386 48.7233 104.134C49.3153 103.882 49.8503 103.514 50.2963 103.05C51.2669 101.874 51.7532 100.372 51.6563 98.85C51.6817 97.8198 51.4838 96.7964 51.0763 95.85C50.7247 95.0269 50.132 94.3296 49.3763 93.85C48.6259 93.3755 47.754 93.1289 46.8663 93.14C46.2361 93.1296 45.6102 93.2445 45.0249 93.478C44.4395 93.7114 43.9063 94.0588 43.4563 94.5C42.5063 95.45 42.0363 96.96 42.0363 99.08V99.05Z" fill="white"/>
<path d="M61.8672 105.91V91.8301H63.7772L71.1772 102.83V91.8301H72.9872V105.91H71.0472L63.6572 94.8401V105.91H61.8672Z" fill="white"/>
<path d="M82.1797 90.9601V88.8101H84.3197V90.9601H82.1797ZM82.3197 105.96V91.8301H84.1797V105.91L82.3197 105.96Z" fill="white"/>
<path d="M93.3125 105.91V91.8301H96.1125L99.4525 101.83C99.7625 102.76 99.9825 103.45 100.122 103.91C100.282 103.403 100.532 102.653 100.872 101.66L104.243 91.8601H106.753V105.94H104.993V94.1201L100.903 105.91H99.2225L95.1525 93.9101V105.91H93.3125Z" fill="white"/>
<path d="M126.458 99.05C126.342 97.0444 127.017 95.0732 128.338 93.56C128.961 92.9027 129.717 92.3846 130.554 92.0399C131.392 91.6952 132.293 91.5317 133.198 91.56C134.435 91.5423 135.652 91.8639 136.718 92.49C137.753 93.1035 138.584 94.0077 139.108 95.09C139.667 96.2706 139.948 97.5639 139.928 98.87C139.951 100.198 139.652 101.512 139.058 102.7C138.526 103.787 137.67 104.681 136.608 105.26C135.561 105.837 134.384 106.137 133.188 106.13C131.934 106.138 130.704 105.791 129.638 105.13C128.61 104.505 127.787 103.595 127.268 102.51C126.74 101.433 126.463 100.25 126.458 99.05ZM128.378 99.05C128.3 100.51 128.791 101.944 129.748 103.05C130.195 103.514 130.731 103.883 131.324 104.135C131.917 104.387 132.554 104.517 133.198 104.517C133.842 104.517 134.48 104.387 135.073 104.135C135.666 103.883 136.201 103.514 136.648 103.05C137.619 101.874 138.105 100.372 138.008 98.85C138.029 97.8203 137.831 96.7979 137.428 95.85C137.073 95.0262 136.477 94.3291 135.718 93.85C134.968 93.3756 134.096 93.129 133.208 93.14C132.58 93.1294 131.955 93.2441 131.371 93.4777C130.787 93.7112 130.256 94.0587 129.808 94.5C128.858 95.45 128.378 96.96 128.378 99.08V99.05Z" fill="white"/>
<path d="M148.258 105.91V91.83H154.498C155.469 91.7852 156.441 91.9139 157.368 92.21C158.024 92.4675 158.574 92.9398 158.928 93.55C159.319 94.1876 159.523 94.922 159.518 95.67C159.526 96.1368 159.442 96.6007 159.271 97.0349C159.099 97.4691 158.843 97.865 158.518 98.2C157.695 98.9619 156.637 99.4205 155.518 99.5C155.923 99.6838 156.303 99.9191 156.648 100.2C157.238 100.759 157.756 101.391 158.188 102.08L160.638 105.91H158.298L156.428 102.98C155.888 102.13 155.428 101.49 155.088 101.04C154.824 100.677 154.504 100.36 154.138 100.1C153.878 99.9264 153.59 99.7979 153.288 99.72C152.957 99.6728 152.622 99.6527 152.288 99.66H150.118V105.91H148.258ZM150.118 98.04H154.118C154.794 98.0629 155.47 97.975 156.118 97.78C156.566 97.6257 156.949 97.3266 157.208 96.93C157.456 96.5567 157.588 96.1183 157.588 95.67C157.597 95.3593 157.536 95.0506 157.41 94.7667C157.283 94.4828 157.095 94.231 156.858 94.03C156.198 93.5436 155.385 93.3127 154.568 93.38H150.108L150.118 98.04Z" fill="white"/>
<path d="M171.57 105.91V93.4901H166.93V91.8301H178.09V93.4901H173.43V105.91H171.57Z" fill="white"/>
<path d="M182.898 105.91L188.308 91.8301H190.308L196.068 105.91H193.988L192.308 101.64H186.428L184.878 105.91H182.898ZM186.958 100.13H191.738L190.268 96.2301C189.818 95.0401 189.488 94.0701 189.268 93.3101C189.086 94.2253 188.832 95.1248 188.508 96.0001L186.958 100.13Z" fill="white"/>
<path d="M203.391 105.91V91.8301H205.261V98.8301L212.261 91.8301H214.791L208.881 97.5301L215.051 105.91H212.591L207.591 98.7801L205.291 101.03V105.91H203.391Z" fill="white"/>
<path d="M222.422 105.91V91.8301H224.282V104.25H231.222V105.91H222.422Z" fill="white"/>
<path d="M239.656 105.91V91.8301H241.516V105.91H239.656Z" fill="white"/>
<path d="M257.302 100.39V98.73H263.302V103.96C262.45 104.654 261.496 105.211 260.472 105.61C259.514 105.976 258.497 106.163 257.472 106.16C256.161 106.177 254.867 105.871 253.702 105.27C252.6 104.704 251.704 103.805 251.142 102.7C250.559 101.533 250.264 100.244 250.282 98.94C250.27 97.6141 250.564 96.3033 251.142 95.11C251.658 93.9832 252.524 93.0535 253.612 92.46C254.752 91.8875 256.016 91.6058 257.292 91.64C258.235 91.6245 259.172 91.7908 260.052 92.13C260.802 92.3989 261.471 92.857 261.992 93.46C262.5 94.1457 262.86 94.9286 263.052 95.76L261.372 96.23C261.217 95.6221 260.949 95.0488 260.582 94.54C260.231 94.0951 259.768 93.7503 259.242 93.54C258.627 93.2852 257.967 93.1592 257.302 93.17C256.547 93.1525 255.796 93.2851 255.092 93.56C254.523 93.7818 254.008 94.1227 253.582 94.56C253.212 94.9736 252.914 95.447 252.702 95.96C252.336 96.8582 252.153 97.8202 252.162 98.79C252.122 99.877 252.345 100.958 252.812 101.94C253.215 102.76 253.88 103.421 254.702 103.82C255.518 104.23 256.419 104.442 257.332 104.44C258.142 104.437 258.943 104.277 259.692 103.97C260.326 103.735 260.917 103.397 261.442 102.97V100.35L257.302 100.39ZM259.182 88.47H260.362C260.315 89.1762 260 89.8378 259.482 90.32C258.934 90.7681 258.239 90.9962 257.532 90.96C256.809 91.0059 256.094 90.7774 255.532 90.32C255.013 89.8393 254.701 89.176 254.662 88.47H255.842C255.892 88.8565 256.08 89.2118 256.372 89.47C256.682 89.6955 257.059 89.8084 257.442 89.79C257.859 89.8199 258.274 89.7109 258.622 89.48C258.925 89.2223 259.124 88.8634 259.182 88.47Z" fill="white"/>
<path d="M272.227 105.91V91.8301H274.087V105.91H272.227Z" fill="white"/>
</g>
<defs>
<clipPath id="clip0_1229_56">
<rect width="274.09" height="106.15" fill="white"/>
</clipPath>
</defs>
</svg>
